<svg width="37" height="37" viewBox="0 0 37 37" fill="none" xmlns="http://www.w3.org/2000/svg">
<path d="M18.5 4.27813C23.125 4.27813 23.68 4.29547 25.508 4.37872C26.6081 4.3917 27.6978 4.59391 28.7293 4.9765C29.4824 5.2545 30.1636 5.69781 30.7227 6.27381C31.2987 6.83294 31.742 7.51411 32.02 8.26719C32.4026 9.29871 32.6048 10.3884 32.6178 11.4885C32.7011 13.32 32.7219 13.875 32.7219 18.5C32.7219 23.125 32.7045 23.68 32.6213 25.508C32.6083 26.6081 32.4061 27.6978 32.0235 28.7293C31.7348 29.477 31.2929 30.156 30.7262 30.7227C30.1595 31.2894 29.4805 31.7313 28.7328 32.02C27.7013 32.4026 26.6116 32.6048 25.5115 32.6178C23.6835 32.7011 23.1343 32.7184 18.5035 32.7184C13.8727 32.7184 13.3235 32.7011 11.4954 32.6178C10.3953 32.6048 9.30565 32.4026 8.27413 32.02C7.52105 31.742 6.83988 31.2987 6.28075 30.7227C5.70475 30.1636 5.26144 29.4824 4.98344 28.7293C4.60085 27.6978 4.39864 26.6081 4.38566 25.508C4.29894 23.68 4.27813 23.1308 4.27813 18.5C4.27813 13.8692 4.29547 13.32 4.37872 11.492C4.3917 10.3919 4.59391 9.30218 4.9765 8.27066C5.25551 7.51725 5.70002 6.83606 6.27728 6.27728C6.83641 5.70128 7.51758 5.25797 8.27066 4.97997C9.30218 4.59738 10.3919 4.39517 11.492 4.38219C13.32 4.29894 13.875 4.27813 18.5 4.27813ZM18.5 1.15625C13.7894 1.15625 13.1986 1.17591 11.3497 1.26031C9.91047 1.29081 8.48672 1.56446 7.13869 2.06969C5.98216 2.50495 4.93424 3.18673 4.06769 4.06769C3.18548 4.9339 2.5025 5.98185 2.06622 7.13869C1.56099 8.48672 1.28734 9.91048 1.25684 11.3498C1.17591 13.1986 1.15625 13.7894 1.15625 18.5C1.15625 23.2106 1.17591 23.8014 1.26031 25.6503C1.29081 27.0895 1.56446 28.5133 2.06969 29.8613C2.50597 31.0182 3.18895 32.0661 4.07116 32.9323C4.93737 33.8145 5.98532 34.4975 7.14216 34.9338C8.49019 35.439 9.91394 35.7127 11.3532 35.7432C13.2032 35.8276 13.7929 35.8472 18.5035 35.8472C23.214 35.8472 23.8049 35.8276 25.6537 35.7432C27.093 35.7127 28.5168 35.439 29.8648 34.9338C31.0165 34.4874 32.0624 33.8057 32.9358 32.9323C33.8092 32.0589 34.4909 31.013 34.9372 29.8613C35.4425 28.5133 35.7161 27.0895 35.7466 25.6503C35.831 23.8003 35.8507 23.2106 35.8507 18.5C35.8507 13.7894 35.831 13.1986 35.7466 11.3498C35.7161 9.91048 35.4425 8.48672 34.9372 7.13869C34.501 5.98185 33.818 4.9339 32.9358 4.06769C32.0696 3.18548 31.0216 2.5025 29.8648 2.06622C28.5168 1.56099 27.093 1.28734 25.6537 1.25684C23.8014 1.17591 23.2106 1.15625 18.5 1.15625Z" fill="#1A1A1A" fill-opacity="0.56"/>
<path d="M18.4999 9.59668C16.7391 9.59668 15.0177 10.1188 13.5536 11.0971C12.0895 12.0754 10.9484 13.4659 10.2745 15.0927C9.60066 16.7196 9.42435 18.5097 9.76788 20.2367C10.1114 21.9638 10.9593 23.5501 12.2045 24.7953C13.4496 26.0404 15.036 26.8883 16.763 27.2319C18.4901 27.5754 20.2802 27.3991 21.907 26.7252C23.5338 26.0514 24.9243 24.9102 25.9026 23.4461C26.8809 21.982 27.4031 20.2607 27.4031 18.4998C27.4031 16.1385 26.465 13.874 24.7954 12.2043C23.1257 10.5347 20.8612 9.59668 18.4999 9.59668ZM18.4999 24.2811C17.3565 24.2811 16.2388 23.942 15.288 23.3067C14.3373 22.6715 13.5963 21.7686 13.1588 20.7122C12.7212 19.6558 12.6067 18.4934 12.8298 17.3719C13.0528 16.2505 13.6034 15.2204 14.412 14.4118C15.2205 13.6033 16.2506 13.0527 17.3721 12.8296C18.4935 12.6066 19.6559 12.7211 20.7123 13.1586C21.7687 13.5962 22.6716 14.3372 23.3069 15.2879C23.9421 16.2386 24.2812 17.3564 24.2812 18.4998C24.2812 20.0331 23.6721 21.5036 22.5879 22.5878C21.5037 23.672 20.0332 24.2811 18.4999 24.2811Z" fill="#1A1A1A" fill-opacity="0.56"/>
<path d="M27.7581 11.3231C28.9076 11.3231 29.8394 10.3913 29.8394 9.24189C29.8394 8.09245 28.9076 7.16064 27.7581 7.16064C26.6087 7.16064 25.6769 8.09245 25.6769 9.24189C25.6769 10.3913 26.6087 11.3231 27.7581 11.3231Z" fill="#1A1A1A" fill-opacity="0.56"/>
</svg>
