<svg width="37" height="37" viewBox="0 0 37 37" fill="none" xmlns="http://www.w3.org/2000/svg">
<g clip-path="url(#clip0_35_642)">
<path d="M37 18.501C36.9994 14.9657 35.9859 11.5045 34.0794 8.52735C32.1729 5.55015 29.4533 3.18156 26.2424 1.70199C23.0316 0.222426 19.4641 -0.306161 15.9622 0.178812C12.4603 0.663784 9.17067 2.14201 6.48279 4.43847C3.79491 6.73494 1.82131 9.75349 0.79566 13.1368C-0.229994 16.52 -0.26476 20.1263 0.69548 23.5288C1.65572 26.9312 3.57075 29.9872 6.21386 32.3351C8.85697 34.6829 12.1175 36.2243 15.6094 36.7767V23.8487H10.9127V18.501H15.6094V14.4252C15.6094 9.78866 18.3717 7.22757 22.5966 7.22757C23.9841 7.24681 25.3683 7.36738 26.7383 7.58832V12.1416H24.405C24.0074 12.0888 23.603 12.1262 23.2217 12.2509C22.8405 12.3756 22.4923 12.5845 22.2028 12.8622C21.9133 13.1398 21.6899 13.479 21.5494 13.8546C21.4088 14.2303 21.3545 14.6328 21.3906 15.0323V18.501H26.5221L25.7011 23.8487H21.3906V36.7767C25.7425 36.0883 29.7058 33.8692 32.5673 30.5189C35.4289 27.1686 37.0007 22.907 37 18.501Z" fill="#1A1A1A" fill-opacity="0.56"/>
</g>
<defs>
<clipPath id="clip0_35_642">
<rect width="37" height="37" fill="white"/>
</clipPath>
</defs>
</svg>
