<svg width="37" height="37" viewBox="0 0 37 37" fill="none" xmlns="http://www.w3.org/2000/svg">
<g clip-path="url(#clip0_35_643)">
<path d="M37 7.05312C35.6125 7.63125 34.225 8.09375 32.6063 8.20937C34.225 7.28437 35.3813 5.78125 35.9594 4.04688C34.4563 4.97188 32.8375 5.55 31.1031 5.89687C29.7156 4.39375 27.75 3.46875 25.6688 3.46875C21.5063 3.46875 18.0375 6.82188 18.0375 11.1C18.0375 11.6781 18.1532 12.2563 18.2688 12.8344C11.9094 12.4875 6.3594 9.48125 2.54377 4.85625C1.85002 6.0125 1.50315 7.28437 1.50315 8.67188C1.50315 11.3312 2.89065 13.6438 4.85627 15.0312C3.5844 15.0312 2.42815 14.6844 1.38752 14.1062V14.2219C1.38752 17.9219 4.0469 20.9281 7.51565 21.6219C6.8219 21.7375 6.24377 21.8531 5.55002 21.8531C5.08752 21.8531 4.62502 21.8531 4.16252 21.7375C5.08752 24.7437 7.97815 26.9406 11.2156 27.0562C8.6719 29.1375 5.31877 30.2938 1.7344 30.2938C1.15627 30.2938 0.462524 30.2938 -0.115601 30.1781C3.35315 32.2594 7.40003 33.5312 11.6782 33.5312C25.6688 33.5312 33.3 21.9688 33.3 11.9094C33.3 11.5625 33.3 11.2156 33.3 10.9844C34.6875 9.82812 35.9594 8.55625 37 7.05312Z" fill="#1A1A1A" fill-opacity="0.56"/>
</g>
<defs>
<clipPath id="clip0_35_643">
<rect width="37" height="37" fill="white"/>
</clipPath>
</defs>
</svg>
