<svg width="37" height="37" viewBox="0 0 37 37" fill="none" xmlns="http://www.w3.org/2000/svg">
<g clip-path="url(#clip0_35_645)">
<path fill-rule="evenodd" clip-rule="evenodd" d="M18.5 0.462402C8.325 0.462402 0 8.7874 0 18.9624C0 27.1718 5.31875 34.1093 12.6031 36.5374C13.5281 36.653 13.875 36.1905 13.875 35.6124C13.875 35.1499 13.875 33.9937 13.875 32.4905C8.67188 33.6468 7.63125 30.0624 7.63125 30.0624C6.82188 27.9812 5.55 27.403 5.55 27.403C3.81563 26.2468 5.66563 26.2468 5.66563 26.2468C7.51562 26.3624 8.55625 28.0968 8.55625 28.0968C10.175 30.8718 12.8344 30.0624 13.9906 29.5999C14.1063 28.4437 14.6844 27.6343 15.1469 27.1718C10.9844 26.7093 6.70625 25.0905 6.70625 18.0374C6.70625 16.0718 7.4 14.3374 8.55625 13.0655C8.325 12.603 7.74687 10.753 8.7875 8.20928C8.7875 8.20928 10.2906 7.74678 13.875 10.0593C15.3781 9.59678 16.8813 9.48115 18.5 9.48115C20.1187 9.48115 21.6219 9.7124 23.125 10.0593C26.7094 7.63115 28.2125 8.09365 28.2125 8.09365C29.2531 10.6374 28.5594 12.4874 28.4438 12.9499C29.6 14.2218 30.2938 15.8405 30.2938 17.9218C30.2938 24.9749 26.0156 26.5937 21.8531 27.0562C22.5469 27.6343 23.125 28.7905 23.125 30.5249C23.125 32.953 23.125 35.0343 23.125 35.6124C23.125 36.0749 23.4719 36.653 24.3969 36.5374C31.6813 34.1093 37 27.1718 37 18.9624C37 8.7874 28.675 0.462402 18.5 0.462402Z" fill="#1A1A1A" fill-opacity="0.56"/>
</g>
<defs>
<clipPath id="clip0_35_645">
<rect width="37" height="37" fill="white"/>
</clipPath>
</defs>
</svg>
